<svg width="299" height="114" viewBox="0 0 299 114" fill="none" xmlns="http://www.w3.org/2000/svg">
<path d="M36.6134 58.9294C36.6134 44.3672 32.4612 36.8912 24.1567 36.4818C20.8524 36.3259 17.6261 36.8522 14.4875 38.0706C11.9825 38.9673 10.2963 39.8543 9.40932 40.751V75.5092C14.7215 78.8427 19.4391 80.3924 23.5523 80.1488C32.2565 79.5737 36.6134 72.5071 36.6134 58.9294ZM46.8576 59.5337C46.8576 66.9317 45.1227 73.0724 41.6332 77.9557C37.7441 83.4823 32.354 86.3284 25.4628 86.4844C20.2676 86.6501 14.9164 85.0223 9.40932 81.6108V113.201L0.500473 110.024V39.903C1.96253 38.1096 3.84372 36.5695 6.12454 35.2634C11.427 32.1736 17.8698 30.5848 25.453 30.5068L25.5797 30.6336C32.5099 30.5458 37.8513 33.392 41.6039 39.1623C45.1031 44.4549 46.8576 51.2389 46.8576 59.5337Z" fill="#646464"/>
<path d="M101.305 80.2657C101.305 90.1883 100.311 97.06 98.3223 100.881C96.3241 104.702 92.5227 107.753 86.9084 110.024C82.3565 111.817 77.4343 112.792 72.1513 112.957L70.6795 107.343C76.0502 106.612 79.832 105.881 82.0251 105.15C86.3431 103.688 89.3062 101.446 90.934 98.4441C92.2401 95.9975 92.8834 91.3287 92.8834 84.418V82.0982C86.7915 84.8664 80.4071 86.2407 73.7304 86.2407C69.3442 86.2407 65.4746 84.8664 62.1411 82.0982C58.3982 79.0863 56.5267 75.2655 56.5267 70.6356V33.5577L65.4356 30.5068V67.8284C65.4356 71.815 66.7222 74.8853 69.2954 77.0395C71.8687 79.1936 75.2022 80.2267 79.2862 80.1488C83.3702 80.061 87.7467 78.482 92.396 75.3922V31.8519H101.305V80.2657Z" fill="#646464"/>
<path d="M136.082 85.997C135.02 86.0847 134.045 86.1237 133.149 86.1237C128.109 86.1237 124.181 84.9248 121.374 82.5173C118.577 80.1098 117.173 76.786 117.173 72.546V37.4565H111.071V31.8519H117.173V16.9681L126.072 13.8003V31.8519H136.082V37.4565H126.072V72.3024C126.072 75.6456 126.969 78.0142 128.762 79.3982C130.302 80.5387 132.749 81.1917 136.082 81.3574V85.997Z" fill="#646464"/>
<path d="M190.023 85.266H181.114V50.8783C181.114 47.3791 180.295 44.3672 178.668 41.8525C176.786 39.0063 174.174 37.5832 170.821 37.5832C166.737 37.5832 161.63 39.7373 155.499 44.0456V85.266H146.59V3.06879L155.499 0.261627V37.7002C161.191 33.5577 167.41 31.4816 174.164 31.4816C178.882 31.4816 182.703 33.0703 185.627 36.2381C188.561 39.4059 190.023 43.3535 190.023 48.0711V85.266Z" fill="#646464"/>
<path d="M237.374 57.5258C237.374 51.9309 236.312 47.3108 234.197 43.6557C231.682 39.2012 227.773 36.8522 222.49 36.6085C212.724 37.1739 207.85 44.1723 207.85 57.5843C207.85 63.7347 208.864 68.8714 210.911 72.9944C213.523 78.2481 217.441 80.8408 222.666 80.7531C232.471 80.6751 237.374 72.9359 237.374 57.5258ZM247.131 57.5843C247.131 65.5476 245.094 72.1757 241.029 77.4683C236.556 83.3946 230.376 86.3674 222.49 86.3674C214.673 86.3674 208.581 83.3946 204.185 77.4683C200.199 72.1757 198.21 65.5476 198.21 57.5843C198.21 50.0985 200.365 43.8019 204.673 38.6749C209.225 33.236 215.209 30.5068 222.607 30.5068C230.005 30.5068 236.029 33.236 240.669 38.6749C244.977 43.8019 247.131 50.0985 247.131 57.5843Z" fill="#646464"/>
<path d="M298.206 85.266H289.297V48.9288C289.297 44.9423 288.098 41.833 285.7 39.5911C283.303 37.359 280.105 36.2771 276.119 36.3648C271.889 36.4428 267.863 37.8269 264.042 40.5074V85.266H255.133V39.4059C260.26 35.6728 264.978 33.236 269.286 32.0956C273.351 31.0332 276.938 30.5068 280.028 30.5068C282.143 30.5068 284.131 30.7115 286.002 31.1209C289.502 31.9299 292.348 33.431 294.541 35.6338C296.987 38.0706 298.206 40.9947 298.206 44.4159V85.266Z" fill="#646464"/>
</svg>
